<svg width="21" height="21" viewBox="0 0 21 21" fill="none" xmlns="http://www.w3.org/2000/svg">
<path d="M20.7937 8.6094C20.9132 9.23759 20.9753 9.88615 20.9753 10.5481C20.9753 11.2914 20.8974 12.0154 20.7486 12.7148C19.7527 17.4056 15.5864 20.9245 10.599 20.9245C6.64707 20.9245 3.21153 18.7161 1.4589 15.4656C0.670427 14.0016 0.222656 12.3278 0.222656 10.5481C0.222656 4.81745 4.86831 0.171875 10.5989 0.171875C13.1163 0.171875 15.4251 1.06852 17.2216 2.56067L13.8607 5.31267C12.9144 4.72167 11.7967 4.37994 10.5989 4.37994C7.89437 4.37994 5.59575 6.12136 4.76337 8.54402C4.54797 9.17221 4.43072 9.84667 4.43072 10.5482C4.43072 11.3095 4.56834 12.0393 4.82204 12.7126C5.69839 15.0518 7.95406 16.7166 10.5989 16.7166C11.7358 16.7166 12.8005 16.4097 13.7141 15.8729C14.9277 15.1613 15.8762 14.048 16.3759 12.7149H10.8268V8.60948H16.4559H20.7937V8.6094H20.7937Z" fill="white"/>
</svg>
