<svg width="300" height="117" viewBox="0 0 300 117" fill="none" xmlns="http://www.w3.org/2000/svg">
<ellipse cx="150.337" cy="58.738" rx="149.618" ry="57.9914" fill="#C035A2"/>
<path d="M40.2381 76.1635L39.0708 75.9605C37.9542 75.7913 37.0237 75.5883 36.2793 75.3514C35.8733 75.3176 35.518 75.1992 35.2135 74.9962C34.9428 74.8947 34.7737 74.7593 34.706 74.5902L33.5894 68.2968V68.043C33.5894 67.8062 33.6063 67.637 33.6402 67.5355C33.7079 67.4001 33.8263 67.3155 33.9955 67.2817C36.1948 68.1276 38.3602 68.5505 40.4918 68.5505C41.1686 68.5505 41.693 68.5675 42.0652 68.6013C43.3509 68.6013 44.2814 68.4321 44.8566 68.0938C45.1611 67.8907 45.3134 67.6031 45.3134 67.231C45.3134 66.6896 45.1442 66.2497 44.8059 65.9114C44.4675 65.5392 43.9769 65.2178 43.334 64.9471L41.7099 64.338C41.2362 64.2365 40.6949 64.0504 40.0858 63.7797C40.0858 63.7459 40.0689 63.729 40.0351 63.729C40.0012 63.6952 39.9674 63.6444 39.9336 63.5767C39.7982 63.5429 39.5106 63.3737 39.0708 63.0692L38.7662 62.9169C38.8339 62.9169 38.8677 62.9 38.8677 62.8662C38.8677 62.8324 38.817 62.7985 38.7155 62.7647C38.614 62.697 38.411 62.5955 38.1065 62.4602C37.8358 62.291 37.5989 62.1049 37.3959 61.9019C37.0914 61.7327 36.9391 61.5297 36.9391 61.2928V61.0391C36.0932 61.0391 35.3658 60.1594 34.7567 58.3999C34.2492 56.6066 33.9955 55.3378 33.9955 54.5934C33.9955 51.4467 35.3489 49.0275 38.0557 47.3357C40.255 45.9485 43.2833 45.018 47.1405 44.5443C49.6443 44.2736 52.7572 44.1383 56.4791 44.1383C56.9528 44.3075 57.325 44.409 57.5956 44.4428C58.2047 44.4767 58.6107 44.6797 58.8137 45.0519C58.9152 45.221 58.9998 45.5594 59.0675 46.0669C59.169 46.6083 59.2705 48.1816 59.372 50.787C59.4397 50.8546 59.4735 50.9561 59.4735 51.0915C59.4735 51.3622 59.1013 51.5821 58.3569 51.7513C57.5449 51.8528 57.0204 51.9035 56.7836 51.9035L55.6163 52.0558C54.2967 52.225 53.4339 52.3434 53.0279 52.4111C51.6406 52.6479 50.6763 53.0708 50.1349 53.6799C49.7966 54.0859 49.6274 54.5088 49.6274 54.9487C49.6274 55.1856 49.6612 55.3717 49.7289 55.507C49.7966 55.6423 49.9658 55.7946 50.2364 55.9638C50.541 56.1329 51.4207 56.5559 52.8756 57.2326C54.432 57.9093 55.9885 58.789 57.5449 59.8718C58.8645 60.7853 59.8119 62.0034 60.3871 63.526C60.6916 64.1689 60.8438 65.0147 60.8438 66.0636C60.8438 67.011 60.7254 67.8231 60.4886 68.4998C59.6088 70.7329 57.9509 72.56 55.5148 73.9811C54.3644 74.6578 53.1632 75.1823 51.9113 75.5545C50.6594 75.9605 49.4582 76.1635 48.3078 76.1635L40.8471 76.3158L40.2381 76.1635ZM67.2447 75.3007C66.7371 75.3007 66.3988 74.9962 66.2296 74.3871C66.1281 74.0488 66.0773 73.4398 66.0773 72.56C66.0773 69.9547 66.0435 67.6877 65.9758 65.7591C65.8743 62.8154 65.8236 59.7533 65.8236 56.5728V46.8282C65.8236 46.5575 65.942 46.3038 66.1789 46.0669C66.4495 45.8301 66.7202 45.7116 66.9909 45.7116C69.427 45.7116 71.1188 45.7286 72.0662 45.7624L75.7712 45.8132C76.7862 45.8132 78.478 45.7793 80.8465 45.7116C82.0646 45.6778 84.0778 45.6609 86.8861 45.6609C88.9501 45.6609 90.7264 45.9147 92.2152 46.4222C94.11 47.0312 95.7171 48.0125 97.0367 49.3659C98.3901 50.99 99.0669 53.1385 99.0669 55.8115C99.0669 60.2101 97.9334 63.4583 95.6664 65.5561C93.6024 67.4171 90.608 68.3475 86.6831 68.3475H80.6435C80.6435 69.3626 80.6096 69.9716 80.542 70.1746C80.542 70.4115 80.5251 70.5807 80.4912 70.6822C80.4574 70.7837 80.4405 70.8513 80.4405 70.8852C80.4405 70.9867 80.4743 71.0882 80.542 71.1897V71.9002L80.6435 72.56V72.9153C80.6435 73.8289 80.4405 74.4717 80.0344 74.8439C79.8653 74.9793 79.6115 75.0638 79.2731 75.0977C78.9686 75.1315 78.6303 75.1484 78.2581 75.1484H75.5174L74.0963 75.1992C72.6752 75.2669 71.5248 75.3007 70.6451 75.3007H67.2447ZM83.0796 63.0185C83.621 63.0185 84.0609 62.4432 84.3992 61.2928C84.6361 60.5146 84.8222 59.3135 84.9575 57.6894C84.9913 56.8773 85.0082 55.9299 85.0082 54.8472V54.3904C85.0082 53.646 84.9237 52.9355 84.7545 52.2588C84.5853 51.2437 84.2977 50.567 83.8917 50.2287C83.6548 49.9918 83.3841 49.8734 83.0796 49.8734C82.8089 49.8734 82.5721 50.0426 82.3691 50.3809C81.9969 51.0915 81.7262 52.2757 81.557 53.9336C81.3879 54.881 81.3033 55.6931 81.3033 56.3698C81.1341 57.9262 81.0495 60.1086 81.0495 62.9169C81.0495 62.9169 81.0664 62.9339 81.1003 62.9677C81.1679 62.9677 81.2356 62.9677 81.3033 62.9677C81.3371 63.0015 81.5232 63.0185 81.8616 63.0185H83.0796ZM105.371 75.8082C104.762 75.8082 104.373 75.1992 104.204 73.9811C104.102 73.4736 104.051 73.0168 104.051 72.6108C104.051 72.0694 104.034 71.7311 104.001 71.5957C103.967 70.6145 103.882 69.0581 103.747 66.9264L103.595 64.9978C103.392 62.0203 103.29 59.821 103.29 58.3999V46.0669C103.29 45.7962 103.595 45.5932 104.204 45.4579C104.542 45.3564 105.016 45.3056 105.625 45.3056C106.031 45.3056 106.471 45.3395 106.944 45.4071C107.418 45.441 107.773 45.4579 108.01 45.4579C108.518 45.5256 109.313 45.5594 110.395 45.5594L110.599 45.4071H112.832C112.933 45.5086 113.052 45.5594 113.187 45.5594H113.39C113.424 45.5256 113.508 45.5086 113.644 45.5086C113.711 45.4748 113.813 45.4579 113.948 45.4579C113.982 45.424 114.016 45.4071 114.05 45.4071C114.084 45.4071 114.1 45.4071 114.1 45.4071C114.202 45.4071 114.32 45.441 114.456 45.5086C114.591 45.5425 114.693 45.5594 114.76 45.5594H118.516L118.668 54.2889C118.668 54.3228 118.634 54.4412 118.567 54.6442C118.533 54.8134 118.499 55.0502 118.465 55.3547C118.364 56.5728 118.313 57.5371 118.313 58.2477V68.1445L118.161 70.0731C118.059 70.919 118.025 71.6126 118.059 72.154C118.059 72.8645 118.025 73.4398 117.958 73.8796C117.924 74.2856 117.822 74.6071 117.653 74.8439C117.45 75.0808 117.129 75.1992 116.689 75.1992L116.638 75.1484L116.486 75.0977C116.418 75.0977 116.384 75.1146 116.384 75.1484H116.131C115.928 75.2161 115.809 75.2669 115.775 75.3007C115.606 75.3007 115.217 75.2499 114.608 75.1484L113.897 75.0977C113.728 75.0977 113.627 75.1654 113.593 75.3007H109.786H109.076L107.756 75.5545L106.538 75.7067L105.371 75.8082ZM138.316 75.4022L137.657 75.3007H136.845C136.337 75.233 135.457 75.1654 134.205 75.0977C133.935 75.0977 133.681 75.0808 133.444 75.0469C133.207 75.0131 132.987 74.9962 132.784 74.9962H131.668L131.16 74.9454C130.078 74.9454 129.282 74.9623 128.775 74.9962C128.267 75.0638 127.472 75.0977 126.389 75.0977H125.374L124.461 75.1484L124.309 74.9454V74.3871V73.1183V71.7987V70.9359V67.4847C124.309 66.6727 124.275 66.0806 124.207 65.7084V64.4903L124.41 62.3079C124.512 60.9545 124.562 59.009 124.562 56.4713C124.63 52.3772 124.884 49.4166 125.324 47.5895C125.56 46.6083 125.95 45.9823 126.491 45.7116L132.429 45.7624C132.937 45.7962 133.664 45.8132 134.611 45.8132H137.048C137.217 45.847 137.521 45.8808 137.961 45.9147C138.435 45.9485 138.79 46.0331 139.027 46.1684C139.23 46.3376 139.365 46.5744 139.433 46.879C139.535 47.1497 139.585 47.5557 139.585 48.097L139.535 48.5031V49.1121C139.433 49.349 139.382 49.5858 139.382 49.8226C139.315 50.0933 139.298 50.364 139.331 50.6347V51.396C139.365 51.5652 139.382 51.802 139.382 52.1065L139.433 52.5126V53.6799L139.484 55.304C139.518 55.6423 139.535 56.116 139.535 56.7251C139.602 57.1988 139.687 57.5202 139.788 57.6894C139.788 57.9262 139.771 58.18 139.738 58.4507C139.704 58.7214 139.687 58.992 139.687 59.2627C139.653 59.6687 139.636 60.2778 139.636 61.0898C139.636 61.868 139.653 62.4432 139.687 62.8154C139.687 63.3568 139.771 63.9151 139.941 64.4903C140.279 64.6256 140.668 64.6933 141.108 64.6933C142.224 64.6933 143.375 64.6764 144.559 64.6425C145.777 64.6087 146.86 64.5072 147.807 64.338C148.01 64.3719 148.196 64.5072 148.366 64.7441C148.569 64.9809 148.67 65.1839 148.67 65.3531L148.315 74.0826C148.247 74.2856 148.112 74.421 147.909 74.4886C147.334 74.7593 146.538 74.9285 145.523 74.9962C144.17 75.1992 143.273 75.3007 142.833 75.3007H141.971C141.294 75.3007 140.786 75.3176 140.448 75.3514C139.771 75.4191 139.298 75.453 139.027 75.453L138.316 75.4022ZM167.014 75.4022L166.354 75.3007H165.542C165.034 75.233 164.155 75.1654 162.903 75.0977C162.632 75.0977 162.378 75.0808 162.141 75.0469C161.905 75.0131 161.685 74.9962 161.482 74.9962H160.365L159.858 74.9454C158.775 74.9454 157.98 74.9623 157.472 74.9962C156.965 75.0638 156.169 75.0977 155.087 75.0977H154.072L153.158 75.1484L153.006 74.9454V74.3871V73.1183V71.7987V70.9359V67.4847C153.006 66.6727 152.972 66.0806 152.904 65.7084V64.4903L153.107 62.3079C153.209 60.9545 153.26 59.009 153.26 56.4713C153.327 52.3772 153.581 49.4166 154.021 47.5895C154.258 46.6083 154.647 45.9823 155.188 45.7116L161.126 45.7624C161.634 45.7962 162.361 45.8132 163.309 45.8132H165.745C165.914 45.847 166.219 45.8808 166.658 45.9147C167.132 45.9485 167.487 46.0331 167.724 46.1684C167.927 46.3376 168.063 46.5744 168.13 46.879C168.232 47.1497 168.283 47.5557 168.283 48.097L168.232 48.5031V49.1121C168.13 49.349 168.08 49.5858 168.08 49.8226C168.012 50.0933 167.995 50.364 168.029 50.6347V51.396C168.063 51.5652 168.08 51.802 168.08 52.1065L168.13 52.5126V53.6799L168.181 55.304C168.215 55.6423 168.232 56.116 168.232 56.7251C168.299 57.1988 168.384 57.5202 168.486 57.6894C168.486 57.9262 168.469 58.18 168.435 58.4507C168.401 58.7214 168.384 58.992 168.384 59.2627C168.35 59.6687 168.333 60.2778 168.333 61.0898C168.333 61.868 168.35 62.4432 168.384 62.8154C168.384 63.3568 168.469 63.9151 168.638 64.4903C168.976 64.6256 169.365 64.6933 169.805 64.6933C170.922 64.6933 172.072 64.6764 173.256 64.6425C174.474 64.6087 175.557 64.5072 176.505 64.338C176.708 64.3719 176.894 64.5072 177.063 64.7441C177.266 64.9809 177.367 65.1839 177.367 65.3531L177.012 74.0826C176.944 74.2856 176.809 74.421 176.606 74.4886C176.031 74.7593 175.236 74.9285 174.221 74.9962C172.867 75.1992 171.971 75.3007 171.531 75.3007H170.668C169.991 75.3007 169.484 75.3176 169.145 75.3514C168.469 75.4191 167.995 75.453 167.724 75.453L167.014 75.4022ZM183.632 74.9454C183.564 74.9454 183.513 74.8778 183.48 74.7424C183.243 74.4379 183.074 74.0657 182.972 73.6258C182.871 73.4567 182.786 73.2367 182.718 72.9661C182.414 72.357 182.194 71.5111 182.058 70.4284C181.923 68.872 181.855 67.637 181.855 66.7234C181.822 66.3174 181.805 65.7591 181.805 65.0486V63.8305C181.805 62.8154 181.788 62.0203 181.754 61.4451C181.72 60.8361 181.703 59.6349 181.703 57.8416C181.703 53.037 181.805 49.332 182.008 46.7267C182.008 46.3207 182.583 46.0162 183.733 45.8132H185.256H186.525C188.453 45.8132 189.891 45.847 190.839 45.9147C192.26 46.0162 193.698 46.0669 195.153 46.0669C195.491 46.0669 195.745 46.05 195.914 46.0162H196.675L196.929 46.2192C198.046 45.9823 199.196 45.8301 200.38 45.7624C201.565 45.6947 203.003 45.6609 204.694 45.6609C204.762 45.6609 204.847 45.7116 204.948 45.8132H206.572C206.843 45.8132 207.046 45.9654 207.181 46.2699C207.35 46.5745 207.486 47.0143 207.587 47.5895C207.723 48.0294 207.824 48.5707 207.892 49.2136C208.027 50.0595 208.146 50.6178 208.247 50.8885C208.247 51.8359 208.078 52.3095 207.74 52.3095C207.706 52.3095 207.655 52.2588 207.587 52.1573L207.384 52.1065C207.215 52.0727 207.029 52.0896 206.826 52.1573C206.623 52.2588 206.403 52.3095 206.166 52.3095C205.963 52.3095 205.794 52.2588 205.659 52.1573C205.591 52.1235 205.439 52.1065 205.202 52.1065C204.897 52.1065 204.542 52.1573 204.136 52.2588C204.001 52.2926 203.73 52.3434 203.324 52.4111C202.952 52.4787 202.512 52.5126 202.004 52.5126C200.549 52.5126 199.501 52.5464 198.858 52.6141C198.486 52.6479 198.13 52.7494 197.792 52.9186V52.8171C197.657 52.8171 197.538 52.9863 197.437 53.3246C197.2 53.8998 197.048 54.6949 196.98 55.71C196.946 56.0145 196.929 56.3529 196.929 56.7251C196.929 57.0973 196.98 57.351 197.081 57.4864C197.217 57.6217 197.42 57.6894 197.69 57.6894C197.893 57.6894 198.063 57.6217 198.198 57.4864C198.266 57.4864 198.35 57.5033 198.452 57.5371C198.553 57.571 198.638 57.6217 198.705 57.6894H203.019C203.053 57.6217 203.104 57.571 203.172 57.5371C203.239 57.5033 203.307 57.4864 203.375 57.4864C203.713 57.4864 203.967 57.5371 204.136 57.6386C204.339 57.7401 204.745 57.8416 205.354 57.9431C205.692 57.9431 205.929 58.0446 206.065 58.2477C206.234 58.4845 206.318 58.7044 206.318 58.9075L207.384 62.2572C207.486 62.7985 206.978 63.1538 205.862 63.323C205.219 63.4583 203.984 63.526 202.157 63.526H199.974H198.452C197.978 63.526 197.623 63.5598 197.386 63.6275C197.149 63.6613 196.997 63.7797 196.929 63.9828C196.794 64.1519 196.726 64.4226 196.726 64.7948V64.9978C196.726 65.167 196.743 65.2854 196.777 65.3531L196.726 66.4697C196.692 66.7065 196.675 67.0618 196.675 67.5355V68.043V68.4998V68.8043C198.198 68.8043 199.754 68.7535 201.345 68.652C202.901 68.5505 204.441 68.4998 205.963 68.4998C206.065 68.4998 206.149 68.5844 206.217 68.7535C206.285 68.8889 206.318 69.0581 206.318 69.2611C206.386 69.4641 206.42 69.684 206.42 69.9209C206.488 70.4284 206.589 70.9021 206.724 71.342L207.08 72.8138V73.8289V73.9811V74.3871L206.674 74.7424H206.318H206.166C205.794 74.7424 205.557 74.7255 205.456 74.6917C205.354 74.624 205.236 74.5902 205.1 74.5902C205.033 74.624 204.931 74.6747 204.796 74.7424C204.66 74.8101 204.542 74.8778 204.441 74.9454V74.6917L203.832 74.7424H203.07C202.935 74.7424 202.833 74.7086 202.766 74.6409L202.36 74.5902C201.108 74.5902 200.228 74.7086 199.721 74.9454H183.632ZM215.749 74.9454C215.681 74.9454 215.631 74.8778 215.597 74.7424C215.36 74.4379 215.191 74.0657 215.089 73.6258C214.988 73.4567 214.903 73.2367 214.835 72.9661C214.531 72.357 214.311 71.5111 214.176 70.4284C214.04 68.872 213.973 67.637 213.973 66.7234C213.939 66.3174 213.922 65.7591 213.922 65.0486V63.8305C213.922 62.8154 213.905 62.0203 213.871 61.4451C213.837 60.8361 213.82 59.6349 213.82 57.8416C213.82 53.037 213.922 49.332 214.125 46.7267C214.125 46.3207 214.7 46.0162 215.85 45.8132H217.373H218.642C220.571 45.8132 222.009 45.847 222.956 45.9147C224.377 46.0162 225.815 46.0669 227.27 46.0669C227.608 46.0669 227.862 46.05 228.031 46.0162H228.793L229.046 46.2192C230.163 45.9823 231.313 45.8301 232.497 45.7624C233.682 45.6947 235.12 45.6609 236.812 45.6609C236.879 45.6609 236.964 45.7116 237.065 45.8132H238.689C238.96 45.8132 239.163 45.9654 239.298 46.2699C239.468 46.5745 239.603 47.0143 239.704 47.5895C239.84 48.0294 239.941 48.5707 240.009 49.2136C240.144 50.0595 240.263 50.6178 240.364 50.8885C240.364 51.8359 240.195 52.3095 239.857 52.3095C239.823 52.3095 239.772 52.2588 239.704 52.1573L239.501 52.1065C239.332 52.0727 239.146 52.0896 238.943 52.1573C238.74 52.2588 238.52 52.3095 238.283 52.3095C238.08 52.3095 237.911 52.2588 237.776 52.1573C237.708 52.1235 237.556 52.1065 237.319 52.1065C237.015 52.1065 236.659 52.1573 236.253 52.2588C236.118 52.2926 235.847 52.3434 235.441 52.4111C235.069 52.4787 234.629 52.5126 234.122 52.5126C232.667 52.5126 231.618 52.5464 230.975 52.6141C230.603 52.6479 230.247 52.7494 229.909 52.9186V52.8171C229.774 52.8171 229.655 52.9863 229.554 53.3246C229.317 53.8998 229.165 54.6949 229.097 55.71C229.063 56.0145 229.046 56.3529 229.046 56.7251C229.046 57.0973 229.097 57.351 229.199 57.4864C229.334 57.6217 229.537 57.6894 229.808 57.6894C230.011 57.6894 230.18 57.6217 230.315 57.4864C230.383 57.4864 230.467 57.5033 230.569 57.5371C230.67 57.571 230.755 57.6217 230.823 57.6894H235.137C235.17 57.6217 235.221 57.571 235.289 57.5371C235.357 57.5033 235.424 57.4864 235.492 57.4864C235.83 57.4864 236.084 57.5371 236.253 57.6386C236.456 57.7401 236.862 57.8416 237.471 57.9431C237.81 57.9431 238.046 58.0446 238.182 58.2477C238.351 58.4845 238.436 58.7044 238.436 58.9075L239.501 62.2572C239.603 62.7985 239.095 63.1538 237.979 63.323C237.336 63.4583 236.101 63.526 234.274 63.526H232.091H230.569C230.095 63.526 229.74 63.5598 229.503 63.6275C229.266 63.6613 229.114 63.7797 229.046 63.9828C228.911 64.1519 228.843 64.4226 228.843 64.7948V64.9978C228.843 65.167 228.86 65.2854 228.894 65.3531L228.843 66.4697C228.809 66.7065 228.793 67.0618 228.793 67.5355V68.043V68.4998V68.8043C230.315 68.8043 231.872 68.7535 233.462 68.652C235.018 68.5505 236.558 68.4998 238.08 68.4998C238.182 68.4998 238.266 68.5844 238.334 68.7535C238.402 68.8889 238.436 69.0581 238.436 69.2611C238.503 69.4641 238.537 69.684 238.537 69.9209C238.605 70.4284 238.706 70.9021 238.842 71.342L239.197 72.8138V73.8289V73.9811V74.3871L238.791 74.7424H238.436H238.283C237.911 74.7424 237.674 74.7255 237.573 74.6917C237.471 74.624 237.353 74.5902 237.218 74.5902C237.15 74.624 237.048 74.6747 236.913 74.7424C236.778 74.8101 236.659 74.8778 236.558 74.9454V74.6917L235.949 74.7424H235.187C235.052 74.7424 234.951 74.7086 234.883 74.6409L234.477 74.5902C233.225 74.5902 232.345 74.7086 231.838 74.9454H215.749ZM260.707 75.3007H258.372H255.733H252.383C252.079 74.827 251.876 73.9642 251.774 72.7123C251.639 71.5957 251.571 69.9716 251.571 67.84L251.622 62.2572C251.656 60.9037 251.673 58.7552 251.673 55.8115L251.52 55.6593H246.496C245.751 55.6593 245.261 54.8134 245.024 53.1216C244.889 52.208 244.821 50.8715 244.821 49.1121V48.4523C244.889 48.2155 244.922 47.8433 244.922 47.3357V46.3207L244.973 45.9147L245.176 45.7116L246.09 45.7624H247.105C248.594 45.7624 249.727 45.7455 250.505 45.7116H253.804H254.718H256.443H258.626H260.808C261.248 45.7455 261.874 45.7624 262.686 45.7624H263.955C264.09 45.6947 264.31 45.6609 264.615 45.6609C264.852 45.5932 265.071 45.5594 265.274 45.5594C265.917 45.5594 266.408 45.5932 266.746 45.6609C267.423 45.7286 267.931 45.7624 268.269 45.7624L269.588 45.7116H271.568C272.583 45.7116 273.277 45.7286 273.649 45.7624L274.359 45.8132C274.393 45.847 274.444 45.8977 274.512 45.9654C274.579 45.9992 274.613 46.0331 274.613 46.0669V54.6949C274.613 54.898 274.495 55.1179 274.258 55.3547C274.055 55.5916 273.852 55.7438 273.649 55.8115C272.532 55.5747 271.077 55.4562 269.284 55.4562H267.355C266.848 55.4562 266.509 56.0991 266.34 57.3849C266.273 57.757 266.239 58.2984 266.239 59.009V60.5315C266.239 61.2083 266.256 61.7158 266.29 62.0541V63.4752C266.29 64.8625 266.222 66.1482 266.087 67.3325C266.019 68.2122 265.985 68.8551 265.985 69.2611C265.917 69.6671 265.884 70.2254 265.884 70.9359C265.884 71.951 265.85 72.7969 265.782 73.4736C265.748 74.5225 265.359 75.0808 264.615 75.1484C263.803 75.2499 263.329 75.3007 263.194 75.3007H260.707Z" fill="white"/>
</svg>
