<svg width="246" height="34" viewBox="0 0 246 34" fill="none" xmlns="http://www.w3.org/2000/svg">
<path d="M7.29095 33.0324L6.10365 32.8259C4.96797 32.6539 4.02157 32.4474 3.26444 32.2065C2.85147 32.1721 2.49012 32.0516 2.18039 31.8451C1.90507 31.7419 1.733 31.6042 1.66417 31.4322L0.528488 25.0311V24.7729C0.528488 24.532 0.545696 24.36 0.58011 24.2567C0.648939 24.1191 0.76939 24.033 0.941463 23.9986C3.17841 24.859 5.38094 25.2892 7.54906 25.2892C8.23735 25.2892 8.77077 25.3064 9.14933 25.3408C10.4571 25.3408 11.4035 25.1687 11.9885 24.8246C12.2983 24.6181 12.4531 24.3256 12.4531 23.947C12.4531 23.3964 12.2811 22.949 11.9369 22.6048C11.5928 22.2263 11.0938 21.8993 10.4399 21.624L8.78798 21.0046C8.30618 20.9013 7.75554 20.712 7.13608 20.4367C7.13608 20.4023 7.11887 20.3851 7.08446 20.3851C7.05005 20.3507 7.01563 20.2991 6.98122 20.2302C6.84356 20.1958 6.55103 20.0237 6.10365 19.714L5.79391 19.5591C5.86274 19.5591 5.89716 19.5419 5.89716 19.5075C5.89716 19.4731 5.84554 19.4387 5.74229 19.4043C5.63905 19.3354 5.43256 19.2322 5.12283 19.0945C4.84751 18.9225 4.60661 18.7332 4.40013 18.5267C4.09039 18.3546 3.93553 18.1481 3.93553 17.9072V17.6491C3.07517 17.6491 2.33525 16.7544 1.71579 14.9648C1.19957 13.1408 0.941463 11.8503 0.941463 11.0932C0.941463 7.89261 2.31805 5.43197 5.07121 3.71124C7.30815 2.30024 10.3883 1.35384 14.3115 0.872041C16.8582 0.596726 20.0243 0.459069 23.8099 0.459069C24.2917 0.631141 24.6703 0.734385 24.9456 0.768799C25.5651 0.803213 25.978 1.0097 26.1845 1.38826C26.2878 1.56033 26.3738 1.90448 26.4426 2.4207C26.5459 2.97133 26.6491 4.57161 26.7524 7.22153C26.8212 7.29036 26.8556 7.3936 26.8556 7.53126C26.8556 7.80657 26.4771 8.03027 25.7199 8.20234C24.894 8.30558 24.3606 8.35721 24.1197 8.35721L22.9324 8.51207C21.5902 8.68414 20.7126 8.8046 20.2996 8.87342C18.8886 9.11433 17.9078 9.54451 17.3572 10.164C17.0131 10.5769 16.841 11.0071 16.841 11.4545C16.841 11.6954 16.8754 11.8847 16.9442 12.0224C17.0131 12.16 17.1851 12.3149 17.4604 12.487C17.7702 12.659 18.665 13.0892 20.1448 13.7775C21.7278 14.4658 23.3109 15.3606 24.894 16.4618C26.2362 17.391 27.1998 18.6299 27.7848 20.1786C28.0945 20.8325 28.2494 21.6928 28.2494 22.7597C28.2494 23.7233 28.129 24.5493 27.8881 25.2375C26.9933 27.5089 25.307 29.3673 22.8291 30.8127C21.659 31.501 20.4373 32.0344 19.164 32.413C17.8906 32.8259 16.6689 33.0324 15.4988 33.0324L7.91041 33.1873L7.29095 33.0324ZM34.7598 32.1549C34.2436 32.1549 33.8994 31.8451 33.7274 31.2257C33.6241 30.8815 33.5725 30.2621 33.5725 29.3673C33.5725 26.7174 33.5381 24.4116 33.4693 22.45C33.366 19.4559 33.3144 16.3414 33.3144 13.1064V3.19502C33.3144 2.91971 33.4348 2.6616 33.6757 2.4207C33.9511 2.17979 34.2264 2.05934 34.5017 2.05934C36.9795 2.05934 38.7003 2.07655 39.6639 2.11096L43.4323 2.16259C44.4647 2.16259 46.1854 2.12817 48.5945 2.05934C49.8334 2.02493 51.881 2.00772 54.7374 2.00772C56.8367 2.00772 58.6435 2.26583 60.1577 2.78205C62.085 3.40151 63.7196 4.39953 65.0618 5.77612C66.4384 7.42801 67.1267 9.61334 67.1267 12.3321C67.1267 16.806 65.9738 20.1098 63.668 22.2435C61.5687 24.1363 58.523 25.0827 54.531 25.0827H48.388C48.388 26.1151 48.3536 26.7346 48.2847 26.9411C48.2847 27.182 48.2675 27.354 48.2331 27.4573C48.1987 27.5605 48.1815 27.6294 48.1815 27.6638C48.1815 27.767 48.2159 27.8703 48.2847 27.9735V28.6962L48.388 29.3673V29.7286C48.388 30.6578 48.1815 31.3117 47.7685 31.6903C47.5964 31.8279 47.3383 31.914 46.9942 31.9484C46.6844 31.9828 46.3403 32 45.9617 32H43.1742L41.7288 32.0516C40.2833 32.1205 39.1132 32.1549 38.2185 32.1549H34.7598ZM50.8658 19.6624C51.4164 19.6624 51.8638 19.0773 52.208 17.9072C52.4489 17.1157 52.6382 15.894 52.7758 14.2421C52.8102 13.4161 52.8274 12.4525 52.8274 11.3513V10.8867C52.8274 10.1296 52.7414 9.40685 52.5693 8.71856C52.3973 7.68612 52.1047 6.99783 51.6918 6.65369C51.4509 6.41278 51.1755 6.29233 50.8658 6.29233C50.5905 6.29233 50.3496 6.46441 50.1431 6.80855C49.7645 7.53126 49.4892 8.73577 49.3172 10.4221C49.1451 11.3857 49.059 12.2116 49.059 12.8999C48.887 14.483 48.8009 16.7027 48.8009 19.5591C48.8009 19.5591 48.8181 19.5763 48.8526 19.6108C48.9214 19.6108 48.9902 19.6108 49.059 19.6108C49.0935 19.6452 49.2827 19.6624 49.6269 19.6624H50.8658ZM73.5387 32.6711C72.9192 32.6711 72.5235 32.0516 72.3514 30.8127C72.2481 30.2965 72.1965 29.8319 72.1965 29.4189C72.1965 28.8683 72.1793 28.5241 72.1449 28.3865C72.1105 27.3885 72.0244 25.8054 71.8868 23.6373L71.7319 21.6756C71.5254 18.6472 71.4222 16.4102 71.4222 14.9648V2.4207C71.4222 2.14538 71.7319 1.93889 72.3514 1.80123C72.6955 1.69799 73.1773 1.64637 73.7968 1.64637C74.2098 1.64637 74.6572 1.68078 75.139 1.74961C75.6208 1.78403 75.9821 1.80123 76.223 1.80123C76.7392 1.87006 77.548 1.90448 78.6492 1.90448L78.8557 1.74961H81.1271C81.2303 1.85286 81.3508 1.90448 81.4884 1.90448H81.6949C81.7293 1.87006 81.8154 1.85286 81.953 1.85286C82.0219 1.81844 82.1251 1.80123 82.2628 1.80123C82.2972 1.76682 82.3316 1.74961 82.366 1.74961C82.4004 1.74961 82.4176 1.74961 82.4176 1.74961C82.5209 1.74961 82.6413 1.78403 82.779 1.85286C82.9166 1.88727 83.0199 1.90448 83.0887 1.90448H86.9087L87.0636 10.7834C87.0636 10.8178 87.0292 10.9383 86.9604 11.1448C86.9259 11.3169 86.8915 11.5578 86.8571 11.8675C86.7539 13.1064 86.7022 14.0872 86.7022 14.8099V24.8762L86.5474 26.8378C86.4441 27.6982 86.4097 28.4037 86.4441 28.9543C86.4441 29.677 86.4097 30.2621 86.3409 30.7095C86.3065 31.1224 86.2032 31.4494 86.0312 31.6903C85.8247 31.9312 85.4977 32.0516 85.0503 32.0516L84.9987 32L84.8439 31.9484C84.775 31.9484 84.7406 31.9656 84.7406 32H84.4825C84.276 32.0688 84.1556 32.1205 84.1212 32.1549C83.9491 32.1549 83.5533 32.1032 82.9339 32L82.2111 31.9484C82.0391 31.9484 81.9358 32.0172 81.9014 32.1549H78.0298H77.3071L75.9649 32.413L74.726 32.5678L73.5387 32.6711ZM107.048 32.2581L106.377 32.1549H105.551C105.035 32.086 104.14 32.0172 102.867 31.9484C102.591 31.9484 102.333 31.9312 102.092 31.8968C101.852 31.8623 101.628 31.8451 101.421 31.8451H100.286L99.7694 31.7935C98.6682 31.7935 97.8594 31.8107 97.3432 31.8451C96.827 31.914 96.0182 31.9484 94.917 31.9484H93.8845L92.9553 32L92.8005 31.7935V31.2257V29.9351V28.593V27.7154V24.2051C92.8005 23.3792 92.7661 22.7769 92.6972 22.3983V21.1594L92.9037 18.9397C93.007 17.5631 93.0586 15.5843 93.0586 13.0032C93.1274 8.83901 93.3855 5.82774 93.8329 3.96935C94.0738 2.97133 94.4696 2.33466 95.0202 2.05934L101.06 2.11096C101.576 2.14538 102.316 2.16259 103.28 2.16259H105.758C105.93 2.197 106.239 2.23142 106.687 2.26583C107.169 2.30024 107.53 2.38628 107.771 2.52394C107.977 2.69601 108.115 2.93691 108.184 3.24664C108.287 3.52196 108.339 3.93494 108.339 4.48557L108.287 4.89854V5.51801C108.184 5.75891 108.132 5.99981 108.132 6.24071C108.063 6.51603 108.046 6.79134 108.081 7.06666V7.84099C108.115 8.01306 108.132 8.25396 108.132 8.56369L108.184 8.97667V10.164L108.235 11.8159C108.27 12.16 108.287 12.6418 108.287 13.2613C108.356 13.7431 108.442 14.07 108.545 14.2421C108.545 14.483 108.528 14.7411 108.494 15.0164C108.459 15.2917 108.442 15.5671 108.442 15.8424C108.407 16.2553 108.39 16.8748 108.39 17.7008C108.39 18.4923 108.407 19.0773 108.442 19.4559C108.442 20.0065 108.528 20.5744 108.7 21.1594C109.044 21.2971 109.44 21.3659 109.887 21.3659C111.023 21.3659 112.193 21.3487 113.398 21.3143C114.637 21.2799 115.738 21.1766 116.701 21.0046C116.908 21.039 117.097 21.1766 117.269 21.4175C117.476 21.6584 117.579 21.8649 117.579 22.037L117.218 30.9159C117.149 31.1224 117.011 31.2601 116.805 31.3289C116.22 31.6042 115.411 31.7763 114.378 31.8451C113.002 32.0516 112.09 32.1549 111.642 32.1549H110.765C110.077 32.1549 109.56 32.1721 109.216 32.2065C108.528 32.2753 108.046 32.3097 107.771 32.3097L107.048 32.2581ZM136.237 32.2581L135.566 32.1549H134.74C134.223 32.086 133.329 32.0172 132.055 31.9484C131.78 31.9484 131.522 31.9312 131.281 31.8968C131.04 31.8623 130.816 31.8451 130.61 31.8451H129.474L128.958 31.7935C127.857 31.7935 127.048 31.8107 126.532 31.8451C126.015 31.914 125.207 31.9484 124.105 31.9484H123.073L122.144 32L121.989 31.7935V31.2257V29.9351V28.593V27.7154V24.2051C121.989 23.3792 121.955 22.7769 121.886 22.3983V21.1594L122.092 18.9397C122.195 17.5631 122.247 15.5843 122.247 13.0032C122.316 8.83901 122.574 5.82774 123.021 3.96935C123.262 2.97133 123.658 2.33466 124.209 2.05934L130.248 2.11096C130.765 2.14538 131.505 2.16259 132.468 2.16259H134.946C135.118 2.197 135.428 2.23142 135.875 2.26583C136.357 2.30024 136.718 2.38628 136.959 2.52394C137.166 2.69601 137.303 2.93691 137.372 3.24664C137.476 3.52196 137.527 3.93494 137.527 4.48557L137.476 4.89854V5.51801C137.372 5.75891 137.321 5.99981 137.321 6.24071C137.252 6.51603 137.235 6.79134 137.269 7.06666V7.84099C137.303 8.01306 137.321 8.25396 137.321 8.56369L137.372 8.97667V10.164L137.424 11.8159C137.458 12.16 137.476 12.6418 137.476 13.2613C137.544 13.7431 137.63 14.07 137.734 14.2421C137.734 14.483 137.716 14.7411 137.682 15.0164C137.648 15.2917 137.63 15.5671 137.63 15.8424C137.596 16.2553 137.579 16.8748 137.579 17.7008C137.579 18.4923 137.596 19.0773 137.63 19.4559C137.63 20.0065 137.716 20.5744 137.889 21.1594C138.233 21.2971 138.628 21.3659 139.076 21.3659C140.211 21.3659 141.382 21.3487 142.586 21.3143C143.825 21.2799 144.926 21.1766 145.89 21.0046C146.096 21.039 146.286 21.1766 146.458 21.4175C146.664 21.6584 146.767 21.8649 146.767 22.037L146.406 30.9159C146.337 31.1224 146.2 31.2601 145.993 31.3289C145.408 31.6042 144.599 31.7763 143.567 31.8451C142.19 32.0516 141.278 32.1549 140.831 32.1549H139.953C139.265 32.1549 138.749 32.1721 138.405 32.2065C137.716 32.2753 137.235 32.3097 136.959 32.3097L136.237 32.2581ZM153.139 31.7935C153.07 31.7935 153.019 31.7247 152.984 31.587C152.743 31.2773 152.571 30.8987 152.468 30.4513C152.365 30.2793 152.279 30.0556 152.21 29.7803C151.9 29.1608 151.677 28.3004 151.539 27.1992C151.401 25.6161 151.332 24.36 151.332 23.4308C151.298 23.0178 151.281 22.45 151.281 21.7273V20.4883C151.281 19.4559 151.264 18.6472 151.229 18.0621C151.195 17.4426 151.177 16.2209 151.177 14.397C151.177 9.51009 151.281 5.7417 151.487 3.09178C151.487 2.67881 152.072 2.36908 153.242 2.16259H154.791H156.082C158.043 2.16259 159.506 2.197 160.469 2.26583C161.915 2.36908 163.377 2.4207 164.857 2.4207C165.201 2.4207 165.46 2.40349 165.632 2.36908H166.406L166.664 2.57556C167.8 2.33466 168.97 2.17979 170.174 2.11096C171.379 2.04214 172.841 2.00772 174.562 2.00772C174.631 2.00772 174.717 2.05934 174.82 2.16259H176.472C176.748 2.16259 176.954 2.31745 177.092 2.62718C177.264 2.93692 177.401 3.3843 177.505 3.96935C177.642 4.41674 177.746 4.96737 177.814 5.62125C177.952 6.48161 178.072 7.04945 178.176 7.32477C178.176 8.28838 178.004 8.77018 177.659 8.77018C177.625 8.77018 177.573 8.71856 177.505 8.61532L177.298 8.56369C177.126 8.52928 176.937 8.54649 176.73 8.61532C176.524 8.71856 176.3 8.77018 176.059 8.77018C175.853 8.77018 175.681 8.71856 175.543 8.61532C175.474 8.5809 175.319 8.56369 175.078 8.56369C174.769 8.56369 174.407 8.61531 173.994 8.71856C173.857 8.75297 173.581 8.8046 173.168 8.87342C172.79 8.94225 172.342 8.97667 171.826 8.97667C170.346 8.97667 169.28 9.01108 168.626 9.07991C168.247 9.11433 167.886 9.21757 167.542 9.38964V9.2864C167.404 9.2864 167.284 9.45847 167.18 9.80262C166.939 10.3877 166.784 11.1964 166.716 12.2288C166.681 12.5386 166.664 12.8827 166.664 13.2613C166.664 13.6398 166.716 13.8979 166.819 14.0356C166.957 14.1733 167.163 14.2421 167.438 14.2421C167.645 14.2421 167.817 14.1733 167.955 14.0356C168.023 14.0356 168.109 14.0528 168.213 14.0872C168.316 14.1216 168.402 14.1733 168.471 14.2421H172.859C172.893 14.1733 172.945 14.1216 173.014 14.0872C173.082 14.0528 173.151 14.0356 173.22 14.0356C173.564 14.0356 173.822 14.0872 173.994 14.1905C174.201 14.2937 174.614 14.397 175.233 14.5002C175.577 14.5002 175.818 14.6034 175.956 14.8099C176.128 15.0508 176.214 15.2745 176.214 15.481L177.298 18.8881C177.401 19.4387 176.885 19.8 175.749 19.9721C175.096 20.1098 173.839 20.1786 171.981 20.1786H169.761H168.213C167.731 20.1786 167.37 20.213 167.129 20.2818C166.888 20.3163 166.733 20.4367 166.664 20.6432C166.526 20.8153 166.458 21.0906 166.458 21.4691V21.6756C166.458 21.8477 166.475 21.9682 166.509 22.037L166.458 23.1727C166.423 23.4136 166.406 23.7749 166.406 24.2567V24.7729V25.2375V25.5473C167.955 25.5473 169.538 25.4957 171.155 25.3924C172.738 25.2892 174.304 25.2375 175.853 25.2375C175.956 25.2375 176.042 25.3236 176.111 25.4957C176.18 25.6333 176.214 25.8054 176.214 26.0119C176.283 26.2184 176.317 26.4421 176.317 26.683C176.386 27.1992 176.489 27.681 176.627 28.1284L176.988 29.6254V30.6578V30.8127V31.2257L176.575 31.587H176.214H176.059C175.681 31.587 175.44 31.5698 175.337 31.5354C175.233 31.4666 175.113 31.4322 174.975 31.4322C174.906 31.4666 174.803 31.5182 174.665 31.587C174.528 31.6559 174.407 31.7247 174.304 31.7935V31.5354L173.685 31.587H172.91C172.773 31.587 172.669 31.5526 172.601 31.4838L172.188 31.4322C170.914 31.4322 170.019 31.5526 169.503 31.7935H153.139ZM185.806 31.7935C185.737 31.7935 185.686 31.7247 185.651 31.587C185.41 31.2773 185.238 30.8987 185.135 30.4513C185.032 30.2793 184.946 30.0556 184.877 29.7803C184.567 29.1608 184.343 28.3004 184.206 27.1992C184.068 25.6161 183.999 24.36 183.999 23.4308C183.965 23.0178 183.948 22.45 183.948 21.7273V20.4883C183.948 19.4559 183.93 18.6472 183.896 18.0621C183.862 17.4426 183.844 16.2209 183.844 14.397C183.844 9.51009 183.948 5.7417 184.154 3.09178C184.154 2.67881 184.739 2.36908 185.909 2.16259H187.458H188.748C190.71 2.16259 192.173 2.197 193.136 2.26583C194.582 2.36908 196.044 2.4207 197.524 2.4207C197.868 2.4207 198.126 2.40349 198.299 2.36908H199.073L199.331 2.57556C200.467 2.33466 201.637 2.17979 202.841 2.11096C204.046 2.04214 205.508 2.00772 207.229 2.00772C207.298 2.00772 207.384 2.05934 207.487 2.16259H209.139C209.414 2.16259 209.621 2.31745 209.759 2.62718C209.931 2.93692 210.068 3.3843 210.172 3.96935C210.309 4.41674 210.412 4.96737 210.481 5.62125C210.619 6.48161 210.739 7.04945 210.843 7.32477C210.843 8.28838 210.671 8.77018 210.326 8.77018C210.292 8.77018 210.24 8.71856 210.172 8.61532L209.965 8.56369C209.793 8.52928 209.604 8.54649 209.397 8.61532C209.191 8.71856 208.967 8.77018 208.726 8.77018C208.52 8.77018 208.348 8.71856 208.21 8.61532C208.141 8.5809 207.986 8.56369 207.745 8.56369C207.436 8.56369 207.074 8.61531 206.661 8.71856C206.524 8.75297 206.248 8.8046 205.835 8.87342C205.457 8.94225 205.009 8.97667 204.493 8.97667C203.013 8.97667 201.946 9.01108 201.293 9.07991C200.914 9.11433 200.553 9.21757 200.209 9.38964V9.2864C200.071 9.2864 199.95 9.45847 199.847 9.80262C199.606 10.3877 199.451 11.1964 199.383 12.2288C199.348 12.5386 199.331 12.8827 199.331 13.2613C199.331 13.6398 199.383 13.8979 199.486 14.0356C199.623 14.1733 199.83 14.2421 200.105 14.2421C200.312 14.2421 200.484 14.1733 200.622 14.0356C200.69 14.0356 200.776 14.0528 200.88 14.0872C200.983 14.1216 201.069 14.1733 201.138 14.2421H205.526C205.56 14.1733 205.612 14.1216 205.68 14.0872C205.749 14.0528 205.818 14.0356 205.887 14.0356C206.231 14.0356 206.489 14.0872 206.661 14.1905C206.868 14.2937 207.281 14.397 207.9 14.5002C208.244 14.5002 208.485 14.6034 208.623 14.8099C208.795 15.0508 208.881 15.2745 208.881 15.481L209.965 18.8881C210.068 19.4387 209.552 19.8 208.416 19.9721C207.763 20.1098 206.506 20.1786 204.648 20.1786H202.428H200.88C200.398 20.1786 200.036 20.213 199.796 20.2818C199.555 20.3163 199.4 20.4367 199.331 20.6432C199.193 20.8153 199.124 21.0906 199.124 21.4691V21.6756C199.124 21.8477 199.142 21.9682 199.176 22.037L199.124 23.1727C199.09 23.4136 199.073 23.7749 199.073 24.2567V24.7729V25.2375V25.5473C200.622 25.5473 202.205 25.4957 203.822 25.3924C205.405 25.2892 206.971 25.2375 208.52 25.2375C208.623 25.2375 208.709 25.3236 208.778 25.4957C208.847 25.6333 208.881 25.8054 208.881 26.0119C208.95 26.2184 208.984 26.4421 208.984 26.683C209.053 27.1992 209.156 27.681 209.294 28.1284L209.655 29.6254V30.6578V30.8127V31.2257L209.242 31.587H208.881H208.726C208.348 31.587 208.107 31.5698 208.003 31.5354C207.9 31.4666 207.78 31.4322 207.642 31.4322C207.573 31.4666 207.47 31.5182 207.332 31.587C207.195 31.6559 207.074 31.7247 206.971 31.7935V31.5354L206.352 31.587H205.577C205.44 31.587 205.336 31.5526 205.267 31.4838L204.855 31.4322C203.581 31.4322 202.686 31.5526 202.17 31.7935H185.806ZM231.533 32.1549H229.159H226.474H223.067C222.758 31.6731 222.551 30.7955 222.448 29.5222C222.31 28.3865 222.241 26.7346 222.241 24.5665L222.293 18.8881C222.327 17.5115 222.345 15.3262 222.345 12.3321L222.19 12.1772H217.079C216.322 12.1772 215.823 11.3169 215.582 9.59613C215.445 8.66694 215.376 7.30756 215.376 5.51801V4.84692C215.445 4.60602 215.479 4.22746 215.479 3.71124V2.67881L215.531 2.26583L215.737 2.05934L216.666 2.11096H217.699C219.213 2.11096 220.366 2.09376 221.157 2.05934H224.513H225.442H227.197H229.417H231.637C232.084 2.09376 232.721 2.11096 233.547 2.11096H234.837C234.975 2.04214 235.198 2.00772 235.508 2.00772C235.749 1.93889 235.973 1.90448 236.179 1.90448C236.833 1.90448 237.332 1.93889 237.676 2.00772C238.365 2.07655 238.881 2.11096 239.225 2.11096L240.567 2.05934H242.58C243.613 2.05934 244.318 2.07655 244.697 2.11096L245.42 2.16259C245.454 2.197 245.506 2.24862 245.574 2.31745C245.643 2.35187 245.678 2.38628 245.678 2.4207V11.1964C245.678 11.4029 245.557 11.6266 245.316 11.8675C245.11 12.1084 244.903 12.2633 244.697 12.3321C243.561 12.0912 242.081 11.9707 240.257 11.9707H238.296C237.78 11.9707 237.435 12.6246 237.263 13.9324C237.194 14.3109 237.16 14.8616 237.16 15.5843V17.1329C237.16 17.8212 237.177 18.3374 237.212 18.6816V20.127C237.212 21.538 237.143 22.8457 237.005 24.0502C236.936 24.945 236.902 25.5989 236.902 26.0119C236.833 26.4248 236.799 26.9927 236.799 27.7154C236.799 28.7478 236.764 29.6082 236.695 30.2965C236.661 31.3633 236.265 31.9312 235.508 32C234.682 32.1032 234.2 32.1549 234.063 32.1549H231.533Z" fill="white"/>
</svg>
