<svg width="13" height="17" viewBox="0 0 13 17" fill="none" xmlns="http://www.w3.org/2000/svg">
<path d="M0.125 2.125C0.125 1.56141 0.348883 1.02091 0.747398 0.622398C1.14591 0.223883 1.68641 0 2.25 0L10.75 0C11.3136 0 11.8541 0.223883 12.2526 0.622398C12.6511 1.02091 12.875 1.56141 12.875 2.125V16.4688C12.875 16.5648 12.8488 16.6591 12.7994 16.7416C12.75 16.824 12.6792 16.8915 12.5945 16.9368C12.5098 16.9822 12.4144 17.0037 12.3184 16.9991C12.2224 16.9945 12.1294 16.964 12.0494 16.9108L6.5 13.9198L0.950562 16.9108C0.870562 16.964 0.77762 16.9945 0.681635 16.9991C0.58565 17.0037 0.490216 16.9822 0.405499 16.9368C0.320782 16.8915 0.249954 16.824 0.200559 16.7416C0.151163 16.6591 0.12505 16.5648 0.125 16.4688V2.125ZM2.25 1.0625C1.96821 1.0625 1.69796 1.17444 1.4987 1.3737C1.29944 1.57296 1.1875 1.84321 1.1875 2.125V15.4764L6.20569 12.8392C6.29288 12.7812 6.39527 12.7503 6.5 12.7503C6.60473 12.7503 6.70712 12.7812 6.79431 12.8392L11.8125 15.4764V2.125C11.8125 1.84321 11.7006 1.57296 11.5013 1.3737C11.302 1.17444 11.0318 1.0625 10.75 1.0625H2.25Z" fill="black"/>
</svg>
