<svg width="15" height="14" viewBox="0 0 15 14" fill="none" xmlns="http://www.w3.org/2000/svg">
<path d="M3.30035 13.6402H2.46035L2.96435 12.9682C3.30035 12.5062 3.51035 11.9182 3.63635 11.2042C1.53635 10.2382 0.360352 8.4322 0.360352 6.0802C0.360352 2.4682 3.09035 0.200195 7.50035 0.200195C11.9104 0.200195 14.6404 2.4682 14.6404 6.0802C14.6404 9.7762 11.9524 11.9602 7.50035 11.9602H7.20635C6.53435 12.7582 5.35835 13.6402 3.30035 13.6402ZM7.50035 1.0402C3.55235 1.0402 1.20035 2.9302 1.20035 6.0802C1.20035 8.7682 2.83835 10.0282 4.22435 10.5742L4.51835 10.7002L4.47635 11.0362C4.39235 11.7082 4.26635 12.2962 4.01435 12.8002C5.40035 12.6322 6.19835 11.9182 6.66035 11.3302L6.78635 11.1622H7.50035C13.1704 11.1622 13.8004 7.6342 13.8004 6.1222C13.8004 2.9302 11.4484 1.0402 7.50035 1.0402Z" fill="black"/>
</svg>
