<svg width="22" height="21" viewBox="0 0 22 21" fill="none" xmlns="http://www.w3.org/2000/svg">
<g clip-path="url(#clip0_58_26)">
<path d="M18.7972 0.171875H3.23275C1.80211 0.171875 0.638672 1.33532 0.638672 2.76595V18.3304C0.638672 19.761 1.80211 20.9245 3.23275 20.9245H18.7972C20.2278 20.9245 21.3913 19.761 21.3913 18.3304V2.76595C21.3913 1.33532 20.2278 0.171875 18.7972 0.171875Z" fill="#878888"/>
<path d="M18.1487 10.5482H14.9061V7.9541C14.9061 7.23814 15.4872 7.30558 16.2031 7.30558H17.5002V4.06299H14.9061C12.7569 4.06299 11.015 5.80491 11.015 7.9541V10.5482H8.4209V13.7908H11.015V20.9245H14.9061V13.7908H16.8516L18.1487 10.5482Z" fill="#FAFAFA"/>
</g>
<defs>
<clipPath id="clip0_58_26">
<rect width="20.7526" height="20.7526" fill="white" transform="translate(0.638672 0.171875)"/>
</clipPath>
</defs>
</svg>
