<svg width="34" height="34" viewBox="0 0 34 34" fill="none" xmlns="http://www.w3.org/2000/svg">
<path d="M34.0003 17.1042C34.0003 7.65642 26.3886 -0.00208092 17.0003 -0.00208092C7.60784 4.40828e-05 -0.00390625 7.65642 -0.00390625 17.1063C-0.00390625 25.6424 6.21384 32.7187 14.3398 34.0022V22.049H10.0261V17.1063H14.3441V13.3344C14.3441 9.04829 16.8835 6.68104 20.7658 6.68104C22.6273 6.68104 24.5717 7.01467 24.5717 7.01467V11.2222H22.4276C20.3175 11.2222 19.6587 12.5418 19.6587 13.8954V17.1042H24.372L23.6197 22.0469H19.6566V34C27.7826 32.7165 34.0003 25.6403 34.0003 17.1042Z" fill="#CFCFCF"/>
</svg>
