<svg width="170" height="67" viewBox="0 0 170 67" fill="none" xmlns="http://www.w3.org/2000/svg">
<ellipse cx="84.833" cy="33.5985" rx="84.7744" ry="32.8583" fill="#171194"/>
<path d="M22.4489 44.0424L21.7875 43.9274C21.1548 43.8315 20.6276 43.7165 20.2058 43.5823C19.9758 43.5631 19.7745 43.496 19.6019 43.381C19.4486 43.3235 19.3527 43.2468 19.3144 43.151L18.6817 39.5851V39.4413C18.6817 39.3071 18.6913 39.2112 18.7105 39.1537C18.7488 39.077 18.8159 39.0291 18.9118 39.0099C20.1579 39.4892 21.3849 39.7289 22.5927 39.7289C22.9761 39.7289 23.2733 39.7385 23.4841 39.7576C24.2127 39.7576 24.7399 39.6618 25.0658 39.4701C25.2383 39.355 25.3246 39.1921 25.3246 38.9812C25.3246 38.6744 25.2287 38.4252 25.037 38.2335C24.8453 38.0226 24.5673 37.8405 24.2031 37.6871L23.2828 37.342C23.0144 37.2845 22.7077 37.1791 22.3626 37.0257C22.3626 37.0065 22.353 36.997 22.3339 36.997C22.3147 36.9778 22.2955 36.949 22.2763 36.9107C22.1997 36.8915 22.0367 36.7957 21.7875 36.6231L21.6149 36.5368C21.6533 36.5368 21.6725 36.5273 21.6725 36.5081C21.6725 36.4889 21.6437 36.4697 21.5862 36.4506C21.5287 36.4122 21.4136 36.3547 21.2411 36.278C21.0877 36.1822 20.9535 36.0767 20.8385 35.9617C20.666 35.8658 20.5797 35.7508 20.5797 35.6166V35.4728C20.1004 35.4728 19.6882 34.9744 19.3431 33.9775C19.0556 32.9614 18.9118 32.2425 18.9118 31.8207C18.9118 30.0378 19.6786 28.667 21.2123 27.7084C22.4585 26.9224 24.1743 26.3952 26.3598 26.1268C27.7785 25.9734 29.5423 25.8967 31.6511 25.8967C31.9195 25.9926 32.1304 26.0501 32.2838 26.0693C32.6289 26.0885 32.8589 26.2035 32.974 26.4144C33.0315 26.5102 33.0794 26.7019 33.1177 26.9895C33.1753 27.2963 33.2328 28.1877 33.2903 29.6639C33.3286 29.7023 33.3478 29.7598 33.3478 29.8365C33.3478 29.9898 33.1369 30.1144 32.7151 30.2103C32.255 30.2678 31.9579 30.2966 31.8237 30.2966L31.1623 30.3828C30.4146 30.4787 29.9257 30.5458 29.6957 30.5841C28.9096 30.7183 28.3632 30.958 28.0565 31.3031C27.8648 31.5331 27.7689 31.7728 27.7689 32.022C27.7689 32.1562 27.7881 32.2616 27.8265 32.3383C27.8648 32.415 27.9607 32.5013 28.114 32.5971C28.2866 32.693 28.785 32.9326 29.6094 33.3161C30.4913 33.6995 31.3732 34.1979 32.255 34.8114C33.0027 35.329 33.5395 36.0192 33.8654 36.8819C34.038 37.2462 34.1242 37.7255 34.1242 38.3198C34.1242 38.8566 34.0571 39.3167 33.9229 39.7001C33.4245 40.9654 32.4851 42.0007 31.1048 42.8059C30.4529 43.1893 29.7723 43.4865 29.063 43.6973C28.3537 43.9274 27.6731 44.0424 27.0213 44.0424L22.794 44.1287L22.4489 44.0424ZM37.751 43.5536C37.4634 43.5536 37.2717 43.381 37.1759 43.0359C37.1183 42.8442 37.0896 42.4991 37.0896 42.0007C37.0896 40.5245 37.0704 39.24 37.0321 38.1472C36.9746 36.4793 36.9458 34.7443 36.9458 32.9422V27.4209C36.9458 27.2675 37.0129 27.1237 37.1471 26.9895C37.3005 26.8553 37.4538 26.7882 37.6072 26.7882C38.9875 26.7882 39.9461 26.7978 40.4829 26.817L42.5822 26.8457C43.1573 26.8457 44.1159 26.8266 45.4579 26.7882C46.148 26.769 47.2887 26.7595 48.88 26.7595C50.0494 26.7595 51.0559 26.9032 51.8994 27.1908C52.973 27.5359 53.8837 28.0919 54.6314 28.8587C55.3982 29.7789 55.7816 30.9963 55.7816 32.5109C55.7816 35.0031 55.1394 36.8436 53.8549 38.0322C52.6855 39.0866 50.9888 39.6138 48.7649 39.6138H45.3428C45.3428 40.189 45.3237 40.5341 45.2853 40.6491C45.2853 40.7833 45.2757 40.8792 45.2566 40.9367C45.2374 40.9942 45.2278 41.0325 45.2278 41.0517C45.2278 41.1092 45.247 41.1667 45.2853 41.2242V41.6268L45.3428 42.0007V42.202C45.3428 42.7196 45.2278 43.0839 44.9978 43.2947C44.9019 43.3714 44.7581 43.4194 44.5664 43.4385C44.3939 43.4577 44.2022 43.4673 43.9913 43.4673H42.4384L41.6332 43.496C40.828 43.5344 40.1762 43.5536 39.6777 43.5536H37.751ZM46.7232 36.5944C47.0299 36.5944 47.2792 36.2684 47.4709 35.6166C47.6051 35.1757 47.7105 34.4951 47.7872 33.5749C47.8064 33.1148 47.8159 32.578 47.8159 31.9645V31.7057C47.8159 31.2839 47.768 30.8813 47.6722 30.4979C47.5763 29.9227 47.4134 29.5393 47.1833 29.3476C47.0491 29.2134 46.8957 29.1463 46.7232 29.1463C46.5698 29.1463 46.4356 29.2421 46.3206 29.4339C46.1097 29.8365 45.9563 30.5075 45.8605 31.4469C45.7646 31.9836 45.7167 32.4438 45.7167 32.8272C45.6208 33.7091 45.5729 34.9456 45.5729 36.5368C45.5729 36.5368 45.5825 36.5464 45.6017 36.5656C45.64 36.5656 45.6783 36.5656 45.7167 36.5656C45.7359 36.5848 45.8413 36.5944 46.033 36.5944H46.7232ZM59.3536 43.8411C59.0085 43.8411 58.788 43.496 58.6922 42.8059C58.6347 42.5183 58.6059 42.2595 58.6059 42.0294C58.6059 41.7227 58.5963 41.531 58.5771 41.4543C58.558 40.8983 58.51 40.0164 58.4334 38.8086L58.3471 37.7159C58.2321 36.0288 58.1745 34.7827 58.1745 33.9775V26.9895C58.1745 26.8361 58.3471 26.7211 58.6922 26.6444C58.8839 26.5869 59.1523 26.5582 59.4974 26.5582C59.7274 26.5582 59.9766 26.5773 60.245 26.6157C60.5134 26.6348 60.7147 26.6444 60.8489 26.6444C61.1365 26.6828 61.587 26.7019 62.2005 26.7019L62.3156 26.6157H63.5809C63.6384 26.6732 63.7055 26.7019 63.7822 26.7019H63.8972C63.9164 26.6828 63.9643 26.6732 64.041 26.6732C64.0793 26.654 64.1368 26.6444 64.2135 26.6444C64.2327 26.6253 64.2519 26.6157 64.271 26.6157C64.2902 26.6157 64.2998 26.6157 64.2998 26.6157C64.3573 26.6157 64.4244 26.6348 64.5011 26.6732C64.5778 26.6924 64.6353 26.7019 64.6736 26.7019H66.8016L66.8879 31.6482C66.8879 31.6673 66.8687 31.7344 66.8304 31.8494C66.8112 31.9453 66.7921 32.0795 66.7729 32.252C66.7154 32.9422 66.6866 33.4886 66.6866 33.8912V39.4988L66.6003 40.5916C66.5428 41.0709 66.5237 41.4639 66.5428 41.7706C66.5428 42.1732 66.5237 42.4991 66.4853 42.7484C66.4661 42.9784 66.4086 43.1605 66.3128 43.2947C66.1977 43.4289 66.0156 43.496 65.7664 43.496L65.7376 43.4673L65.6514 43.4385C65.613 43.4385 65.5939 43.4481 65.5939 43.4673H65.4501C65.335 43.5056 65.2679 43.5344 65.2488 43.5536C65.1529 43.5536 64.9324 43.5248 64.5874 43.4673L64.1848 43.4385C64.0889 43.4385 64.0314 43.4769 64.0122 43.5536H61.8554H61.4528L60.7052 43.6973L60.015 43.7836L59.3536 43.8411ZM78.0207 43.6111L77.6469 43.5536H77.1867C76.8992 43.5152 76.4007 43.4769 75.6914 43.4385C75.538 43.4385 75.3942 43.4289 75.26 43.4098C75.1258 43.3906 75.0012 43.381 74.8862 43.381H74.2535L73.966 43.3523C73.3525 43.3523 72.902 43.3618 72.6144 43.381C72.3268 43.4194 71.8763 43.4385 71.2628 43.4385H70.6877L70.17 43.4673L70.0838 43.3523V43.0359V42.317V41.5693V41.0805V39.125C70.0838 38.6649 70.0646 38.3294 70.0262 38.1185V37.4283L70.1413 36.1918C70.1988 35.4249 70.2275 34.3226 70.2275 32.8847C70.2659 30.565 70.4097 28.8875 70.6589 27.8522C70.7931 27.2963 71.0136 26.9416 71.3203 26.7882L74.6849 26.817C74.9725 26.8361 75.3846 26.8457 75.9214 26.8457H77.3018C77.3976 26.8649 77.5702 26.8841 77.8194 26.9032C78.0878 26.9224 78.2891 26.9703 78.4233 27.047C78.5383 27.1429 78.615 27.2771 78.6534 27.4496C78.7109 27.603 78.7396 27.8331 78.7396 28.1398L78.7109 28.3699V28.7149C78.6534 28.8491 78.6246 28.9833 78.6246 29.1175C78.5863 29.2709 78.5767 29.4243 78.5958 29.5776V30.009C78.615 30.1049 78.6246 30.2391 78.6246 30.4116L78.6534 30.6417V31.3031L78.6821 32.2233C78.7013 32.415 78.7109 32.6834 78.7109 33.0285C78.7492 33.2969 78.7971 33.479 78.8547 33.5749C78.8547 33.7091 78.8451 33.8529 78.8259 34.0062C78.8067 34.1596 78.7971 34.313 78.7971 34.4663C78.778 34.6964 78.7684 35.0415 78.7684 35.5016C78.7684 35.9425 78.778 36.2684 78.7971 36.4793C78.7971 36.7861 78.8451 37.1024 78.9409 37.4283C79.1326 37.505 79.3531 37.5433 79.6023 37.5433C80.235 37.5433 80.8868 37.5338 81.5578 37.5146C82.248 37.4954 82.8615 37.4379 83.3983 37.342C83.5133 37.3612 83.6187 37.4379 83.7146 37.5721C83.8296 37.7063 83.8871 37.8213 83.8871 37.9172L83.6858 42.8634C83.6475 42.9784 83.5708 43.0551 83.4558 43.0934C83.1299 43.2468 82.6793 43.3427 82.1042 43.381C81.3373 43.496 80.8293 43.5536 80.5801 43.5536H80.0912C79.7078 43.5536 79.4202 43.5631 79.2285 43.5823C78.8451 43.6207 78.5767 43.6398 78.4233 43.6398L78.0207 43.6111ZM94.2808 43.6111L93.9069 43.5536H93.4468C93.1592 43.5152 92.6608 43.4769 91.9515 43.4385C91.7981 43.4385 91.6543 43.4289 91.5201 43.4098C91.3859 43.3906 91.2613 43.381 91.1463 43.381H90.5136L90.226 43.3523C89.6125 43.3523 89.162 43.3618 88.8745 43.381C88.5869 43.4194 88.1364 43.4385 87.5229 43.4385H86.9477L86.4301 43.4673L86.3438 43.3523V43.0359V42.317V41.5693V41.0805V39.125C86.3438 38.6649 86.3247 38.3294 86.2863 38.1185V37.4283L86.4013 36.1918C86.4589 35.4249 86.4876 34.3226 86.4876 32.8847C86.526 30.565 86.6697 28.8875 86.919 27.8522C87.0532 27.2963 87.2736 26.9416 87.5804 26.7882L90.945 26.817C91.2325 26.8361 91.6447 26.8457 92.1815 26.8457H93.5618C93.6577 26.8649 93.8302 26.8841 94.0795 26.9032C94.3479 26.9224 94.5492 26.9703 94.6834 27.047C94.7984 27.1429 94.8751 27.2771 94.9134 27.4496C94.9709 27.603 94.9997 27.8331 94.9997 28.1398L94.9709 28.3699V28.7149C94.9134 28.8491 94.8847 28.9833 94.8847 29.1175C94.8463 29.2709 94.8367 29.4243 94.8559 29.5776V30.009C94.8751 30.1049 94.8847 30.2391 94.8847 30.4116L94.9134 30.6417V31.3031L94.9422 32.2233C94.9614 32.415 94.9709 32.6834 94.9709 33.0285C95.0093 33.2969 95.0572 33.479 95.1147 33.5749C95.1147 33.7091 95.1051 33.8529 95.086 34.0062C95.0668 34.1596 95.0572 34.313 95.0572 34.4663C95.038 34.6964 95.0285 35.0415 95.0285 35.5016C95.0285 35.9425 95.038 36.2684 95.0572 36.4793C95.0572 36.7861 95.1051 37.1024 95.201 37.4283C95.3927 37.505 95.6132 37.5433 95.8624 37.5433C96.4951 37.5433 97.1469 37.5338 97.8179 37.5146C98.5081 37.4954 99.1215 37.4379 99.6583 37.342C99.7734 37.3612 99.8788 37.4379 99.9747 37.5721C100.09 37.7063 100.147 37.8213 100.147 37.9172L99.9459 42.8634C99.9076 42.9784 99.8309 43.0551 99.7158 43.0934C99.3899 43.2468 98.9394 43.3427 98.3643 43.381C97.5974 43.496 97.0894 43.5536 96.8401 43.5536H96.3513C95.9678 43.5536 95.6803 43.5631 95.4886 43.5823C95.1051 43.6207 94.8367 43.6398 94.6834 43.6398L94.2808 43.6111ZM103.697 43.3523C103.658 43.3523 103.63 43.3139 103.61 43.2372C103.476 43.0647 103.38 42.8538 103.323 42.6046C103.265 42.5087 103.217 42.3841 103.179 42.2307C103.007 41.8856 102.882 41.4064 102.805 40.7929C102.729 39.911 102.69 39.2112 102.69 38.6936C102.671 38.4636 102.661 38.1472 102.661 37.7446V37.0545C102.661 36.4793 102.652 36.0288 102.633 35.7029C102.613 35.3578 102.604 34.6772 102.604 33.6611C102.604 30.9388 102.661 28.8395 102.776 27.3634C102.776 27.1333 103.102 26.9608 103.754 26.8457H104.617H105.336C106.429 26.8457 107.243 26.8649 107.78 26.9032C108.585 26.9608 109.4 26.9895 110.225 26.9895C110.416 26.9895 110.56 26.9799 110.656 26.9608H111.087L111.231 27.0758C111.864 26.9416 112.515 26.8553 113.186 26.817C113.857 26.7786 114.672 26.7595 115.631 26.7595C115.669 26.7595 115.717 26.7882 115.775 26.8457H116.695C116.848 26.8457 116.963 26.932 117.04 27.1045C117.136 27.2771 117.212 27.5263 117.27 27.8522C117.347 28.1015 117.404 28.4082 117.443 28.7724C117.519 29.2517 117.586 29.5681 117.644 29.7214C117.644 30.2582 117.548 30.5266 117.356 30.5266C117.337 30.5266 117.308 30.4979 117.27 30.4404L117.155 30.4116C117.059 30.3924 116.954 30.402 116.839 30.4404C116.724 30.4979 116.599 30.5266 116.465 30.5266C116.35 30.5266 116.254 30.4979 116.177 30.4404C116.139 30.4212 116.053 30.4116 115.918 30.4116C115.746 30.4116 115.545 30.4404 115.315 30.4979C115.238 30.517 115.084 30.5458 114.854 30.5841C114.644 30.6225 114.394 30.6417 114.107 30.6417C113.282 30.6417 112.688 30.6608 112.324 30.6992C112.113 30.7183 111.912 30.7759 111.72 30.8717V30.8142C111.643 30.8142 111.576 30.9101 111.519 31.1018C111.384 31.4277 111.298 31.8782 111.26 32.4533C111.241 32.6259 111.231 32.8176 111.231 33.0285C111.231 33.2394 111.26 33.3832 111.317 33.4598C111.394 33.5365 111.509 33.5749 111.662 33.5749C111.777 33.5749 111.873 33.5365 111.95 33.4598C111.988 33.4598 112.036 33.4694 112.094 33.4886C112.151 33.5078 112.199 33.5365 112.238 33.5749H114.682C114.701 33.5365 114.73 33.5078 114.768 33.4886C114.806 33.4694 114.845 33.4598 114.883 33.4598C115.075 33.4598 115.219 33.4886 115.315 33.5461C115.43 33.6036 115.66 33.6611 116.005 33.7187C116.196 33.7187 116.331 33.7762 116.407 33.8912C116.503 34.0254 116.551 34.15 116.551 34.265L117.155 36.163C117.212 36.4697 116.925 36.671 116.292 36.7669C115.928 36.8436 115.228 36.8819 114.193 36.8819H112.956H112.094C111.825 36.8819 111.624 36.9011 111.49 36.9394C111.356 36.9586 111.269 37.0257 111.231 37.1407C111.154 37.2366 111.116 37.39 111.116 37.6009V37.7159C111.116 37.8117 111.126 37.8788 111.145 37.9172L111.116 38.5498C111.097 38.684 111.087 38.8853 111.087 39.1537V39.4413V39.7001V39.8727C111.95 39.8727 112.832 39.8439 113.733 39.7864C114.615 39.7289 115.487 39.7001 116.35 39.7001C116.407 39.7001 116.455 39.748 116.494 39.8439C116.532 39.9206 116.551 40.0164 116.551 40.1315C116.589 40.2465 116.609 40.3711 116.609 40.5053C116.647 40.7929 116.704 41.0613 116.781 41.3105L116.982 42.1445V42.7196V42.8059V43.0359L116.752 43.2372H116.551H116.465C116.254 43.2372 116.12 43.2276 116.062 43.2085C116.005 43.1701 115.938 43.151 115.861 43.151C115.823 43.1701 115.765 43.1989 115.688 43.2372C115.612 43.2756 115.545 43.3139 115.487 43.3523V43.2085L115.142 43.2372H114.711C114.634 43.2372 114.576 43.2181 114.538 43.1797L114.308 43.151C113.599 43.151 113.1 43.2181 112.813 43.3523H103.697ZM121.894 43.3523C121.856 43.3523 121.827 43.3139 121.808 43.2372C121.674 43.0647 121.578 42.8538 121.521 42.6046C121.463 42.5087 121.415 42.3841 121.377 42.2307C121.204 41.8856 121.08 41.4064 121.003 40.7929C120.926 39.911 120.888 39.2112 120.888 38.6936C120.869 38.4636 120.859 38.1472 120.859 37.7446V37.0545C120.859 36.4793 120.85 36.0288 120.83 35.7029C120.811 35.3578 120.802 34.6772 120.802 33.6611C120.802 30.9388 120.859 28.8395 120.974 27.3634C120.974 27.1333 121.3 26.9608 121.952 26.8457H122.815H123.534C124.626 26.8457 125.441 26.8649 125.978 26.9032C126.783 26.9608 127.598 26.9895 128.422 26.9895C128.614 26.9895 128.758 26.9799 128.854 26.9608H129.285L129.429 27.0758C130.061 26.9416 130.713 26.8553 131.384 26.817C132.055 26.7786 132.87 26.7595 133.829 26.7595C133.867 26.7595 133.915 26.7882 133.972 26.8457H134.893C135.046 26.8457 135.161 26.932 135.238 27.1045C135.334 27.2771 135.41 27.5263 135.468 27.8522C135.544 28.1015 135.602 28.4082 135.64 28.7724C135.717 29.2517 135.784 29.5681 135.842 29.7214C135.842 30.2582 135.746 30.5266 135.554 30.5266C135.535 30.5266 135.506 30.4979 135.468 30.4404L135.353 30.4116C135.257 30.3924 135.151 30.402 135.036 30.4404C134.921 30.4979 134.797 30.5266 134.663 30.5266C134.548 30.5266 134.452 30.4979 134.375 30.4404C134.337 30.4212 134.25 30.4116 134.116 30.4116C133.944 30.4116 133.742 30.4404 133.512 30.4979C133.436 30.517 133.282 30.5458 133.052 30.5841C132.841 30.6225 132.592 30.6417 132.305 30.6417C131.48 30.6417 130.886 30.6608 130.522 30.6992C130.311 30.7183 130.109 30.7759 129.918 30.8717V30.8142C129.841 30.8142 129.774 30.9101 129.716 31.1018C129.582 31.4277 129.496 31.8782 129.458 32.4533C129.438 32.6259 129.429 32.8176 129.429 33.0285C129.429 33.2394 129.458 33.3832 129.515 33.4598C129.592 33.5365 129.707 33.5749 129.86 33.5749C129.975 33.5749 130.071 33.5365 130.148 33.4598C130.186 33.4598 130.234 33.4694 130.292 33.4886C130.349 33.5078 130.397 33.5365 130.435 33.5749H132.88C132.899 33.5365 132.928 33.5078 132.966 33.4886C133.004 33.4694 133.043 33.4598 133.081 33.4598C133.273 33.4598 133.416 33.4886 133.512 33.5461C133.627 33.6036 133.857 33.6611 134.202 33.7187C134.394 33.7187 134.528 33.7762 134.605 33.8912C134.701 34.0254 134.749 34.15 134.749 34.265L135.353 36.163C135.41 36.4697 135.123 36.671 134.49 36.7669C134.126 36.8436 133.426 36.8819 132.391 36.8819H131.154H130.292C130.023 36.8819 129.822 36.9011 129.688 36.9394C129.553 36.9586 129.467 37.0257 129.429 37.1407C129.352 37.2366 129.314 37.39 129.314 37.6009V37.7159C129.314 37.8117 129.323 37.8788 129.343 37.9172L129.314 38.5498C129.295 38.684 129.285 38.8853 129.285 39.1537V39.4413V39.7001V39.8727C130.148 39.8727 131.03 39.8439 131.931 39.7864C132.813 39.7289 133.685 39.7001 134.548 39.7001C134.605 39.7001 134.653 39.748 134.691 39.8439C134.73 39.9206 134.749 40.0164 134.749 40.1315C134.787 40.2465 134.806 40.3711 134.806 40.5053C134.845 40.7929 134.902 41.0613 134.979 41.3105L135.18 42.1445V42.7196V42.8059V43.0359L134.95 43.2372H134.749H134.663C134.452 43.2372 134.318 43.2276 134.26 43.2085C134.202 43.1701 134.135 43.151 134.059 43.151C134.02 43.1701 133.963 43.1989 133.886 43.2372C133.809 43.2756 133.742 43.3139 133.685 43.3523V43.2085L133.34 43.2372H132.908C132.832 43.2372 132.774 43.2181 132.736 43.1797L132.506 43.151C131.796 43.151 131.298 43.2181 131.01 43.3523H121.894ZM147.368 43.5536H146.045H144.55H142.652C142.479 43.2852 142.364 42.7963 142.307 42.0869C142.23 41.4543 142.192 40.5341 142.192 39.3263L142.22 36.163C142.239 35.3961 142.249 34.1788 142.249 32.5109L142.163 32.4246H139.316C138.894 32.4246 138.616 31.9453 138.482 30.9867C138.405 30.4691 138.367 29.7118 138.367 28.7149V28.3411C138.405 28.2069 138.424 27.996 138.424 27.7084V27.1333L138.453 26.9032L138.568 26.7882L139.086 26.817H139.661C140.504 26.817 141.147 26.8074 141.588 26.7882H143.457H143.974H144.952H146.189H147.425C147.675 26.8074 148.029 26.817 148.489 26.817H149.208C149.285 26.7786 149.41 26.7595 149.582 26.7595C149.716 26.7211 149.841 26.7019 149.956 26.7019C150.32 26.7019 150.598 26.7211 150.79 26.7595C151.173 26.7978 151.461 26.817 151.653 26.817L152.4 26.7882H153.522C154.097 26.7882 154.49 26.7978 154.701 26.817L155.103 26.8457C155.123 26.8649 155.151 26.8937 155.19 26.932C155.228 26.9512 155.247 26.9703 155.247 26.9895V31.8782C155.247 31.9932 155.18 32.1178 155.046 32.252C154.931 32.3862 154.816 32.4725 154.701 32.5109C154.068 32.3767 153.244 32.3096 152.228 32.3096H151.135C150.847 32.3096 150.656 32.6738 150.56 33.4023C150.521 33.6132 150.502 33.92 150.502 34.3226V35.1853C150.502 35.5687 150.512 35.8563 150.531 36.048V36.8532C150.531 37.6392 150.493 38.3677 150.416 39.0387C150.378 39.5372 150.359 39.9014 150.359 40.1315C150.32 40.3615 150.301 40.6779 150.301 41.0805C150.301 41.6556 150.282 42.1349 150.243 42.5183C150.224 43.1126 150.004 43.4289 149.582 43.4673C149.122 43.5248 148.854 43.5536 148.777 43.5536H147.368Z" fill="white"/>
</svg>
