<svg width="20" height="26" viewBox="0 0 20 26" fill="none" xmlns="http://www.w3.org/2000/svg">
<path d="M18.832 12.969C18.56 12.322 18.25 11.589 17.949 10.684C17.159 8.315 19.683 5.731 19.707 5.707L18.293 4.293C18.153 4.433 14.87 7.771 16.051 11.316C16.377 12.294 16.703 13.066 16.989 13.746C17.6564 15.0646 18.0028 16.5222 18 18C17.8828 19.1912 17.4255 20.3235 16.6826 21.262C15.9396 22.2005 14.9425 22.9055 13.81 23.293C14.1678 21.8907 14.1624 20.4203 13.7945 19.0207C13.4266 17.621 12.7081 16.3381 11.707 15.293L10.663 14.249L10.081 15.606C8.245 19.89 6.06 21.76 4.775 22.54C3.98615 22.0569 3.32326 21.3934 2.84083 20.6041C2.3584 19.8149 2.07022 18.9224 2 18C2.06898 16.7412 2.38463 15.5081 2.929 14.371C3.5746 13.0002 3.93878 11.5139 4 10V8.222C4.874 8.582 6 9.525 6 12V14.603L7.743 12.669C10.855 9.215 10.206 5.102 8.949 2.361C9.90449 2.6795 10.725 3.31027 11.2784 4.15176C11.8319 4.99325 12.086 5.99651 12 7H14C14 1.463 9.421 0 7 0H5L6.2 1.599C6.337 1.784 9.062 5.526 7.553 9.287C7.2172 8.34188 6.60182 7.52127 5.7886 6.93417C4.97537 6.34707 4.00278 6.02125 3 6H2V10C1.93102 11.2588 1.61537 12.4919 1.071 13.629C0.425396 14.9998 0.0612169 16.4861 0 18C0 21.848 3.823 26 10 26C16.177 26 20 21.848 20 18C20.0015 16.2556 19.6019 14.5343 18.832 12.969ZM6.835 23.526C8.67967 21.999 10.1698 20.0888 11.202 17.928C11.7531 18.8178 12.0661 19.8343 12.1111 20.8799C12.1561 21.9255 11.9316 22.9652 11.459 23.899C10.9754 23.9641 10.488 23.9978 10 24C8.92678 24.0074 7.85896 23.8475 6.835 23.526Z" fill="white"/>
</svg>
